<?xml version="1.0" standalone="no"?>
<!DOCTYPE svg PUBLIC "-//W3C//DTD SVG 1.1//EN"
"http://www.w3.org/Graphics/SVG/1.1/DTD/svg11.dtd">
<svg width="15.1411cm" height="23.2163cm" viewBox="-144.705 -11.0815 151.411 232.163" xmlns="http://www.w3.org/2000/svg" version = "1.1">
<title>base_case_solid.123dx</title>
<desc> made with 123D Design </desc>
<path d="M -132.391 210.059 L -132.472 210.024 L -133.638 209.495 L -134.701 208.783 L -134.77 208.727 L -135.705 207.853 L -136.486 206.838 L -136.536 206.766 L -137.139 205.637 L -137.168 205.554 L -137.579 204.341 L -137.789 203.078 L -137.796 202.99 L -137.823 197.864 L -137.823 197.687 L -137.823 187.432 L -137.823 186.725 L -137.823 166.215 L -137.823 165.666 L -137.823 164.802 L -137.823 82.7618 L -137.823 80.2409 L -137.823 79.9358 L -137.823 38.9156 L -137.823 37.5282 L -137.823 16.5908 L -137.823 16.1719 L -137.823 15.8333 L -137.823 10.7058 L -137.823 8.14204 L -137.785 6.86144 L -137.78 6.80374 L -137.551 5.54398 L -137.535 5.48813 L -137.104 4.28242 L -137.079 4.23026 L -136.456 3.11209 L -136.422 3.06525 L -135.626 2.06258 L -135.584 2.02249 L -134.637 1.16137 L -134.588 1.12945 L -133.512 0.435729 L -132.337 -0.0720856 L -132.284 -0.0947987 L -131.042 -0.406591 L -130.985 -0.419536 L -129.71 -0.525619 L -129.652 -0.5286 L -129.594 -0.5286 L -129.478 -0.5286 L -129.246 -0.5286 L -128.318 -0.5286 L -46.277 -0.5286 L -44.4206 -0.5286 L -23.9105 -0.5286 L -22.8845 -0.5286 L -22.308 -0.5286 L -12.0529 -0.5286 L -9.48915 -0.5286 L -8.20728 -0.527566 L -6.93307 -0.40182 L -6.84585 -0.389813 L -5.6089 -0.0590222 L -5.52818 -0.0239135 L -4.36226 0.504871 L -3.29853 1.21729 L -3.23025 1.27287 L -2.29503 2.14732 L -1.51439 3.16192 L -1.46362 3.23381 L -0.861342 4.36347 L -0.831929 4.44644 L -0.420827 5.65902 L -0.210586 6.92189 L -0.20377 7.00972 L -0.177 12.1364 L -0.177 12.313 L -0.177 22.5681 L -0.177 23.2746 L -0.177 43.7847 L -0.177 44.3338 L -0.177 45.1977 L -0.177 127.238 L -0.177 129.759 L -0.177 130.064 L -0.177 171.084 L -0.177 172.624 L -0.177 193.134 L -0.177 193.904 L -0.177 199.032 L -0.177 199.224 L -0.177 201.788 L -0.178092 201.884 L -0.215998 203.165 L -0.445212 204.425 L -0.467136 204.518 L -0.89799 205.724 L -1.52128 206.842 L -1.56971 206.925 L -2.36595 207.927 L -2.4364 207.992 L -3.38372 208.854 L -4.45965 209.547 L -4.54615 209.589 L -5.72139 210.096 L -6.96322 210.408 L -7.05802 210.423 L -8.3338 210.529 L -90.3743 210.529 L -95.1819 210.529 L -115.692 210.529 L -125.947 210.529 L -128.511 210.529 L -129.793 210.528 L -131.067 210.402 L -131.154 210.39 z  " fill= "none" stroke="rgb(0,0,255)" stroke-width="0.05mm" />
</svg>
